<?xml version="1.0" ?><svg id="Layer_1" style="enable-background:new 1 -1 100 100;" version="1.1" viewBox="1 -1 100 100" xml:space="preserve" xmlns="http://www.w3.org/2000/svg" xmlns:xlink="http://www.w3.org/1999/xlink"><title/><g><path d="M4.1,43v3.4c0,8.4,6.5,15.3,14.9,15.9v23.9c0,1.7,1.3,3,3,3h10.6c1.7,0,3-1.3,3-3V62.4h1.7V27H20.1   C11.3,27,4.1,34.2,4.1,43z"/><path d="M96.6,9.3c-0.8-0.6-1.9-0.7-2.8-0.3L44.4,30v29.3l49.4,21c1.5,0.6,3.3-0.1,3.9-1.6c0.2-0.4,0.2-0.8,0.2-1.2V11.8   C97.9,10.8,97.4,9.9,96.6,9.3z"/></g></svg>