<svg width="21" height="20" viewBox="0 0 21 20" fill="none" xmlns="http://www.w3.org/2000/svg">
<path d="M19.5235 8.81226L11.1902 0.478929C11.0316 0.327194 10.8447 0.208253 10.6402 0.128929C10.2344 -0.0377679 9.77925 -0.0377679 9.37349 0.128929C9.1689 0.208253 8.98199 0.327194 8.82349 0.478929L0.490153 8.81226C0.334755 8.96766 0.211488 9.15214 0.127387 9.35518C0.0432865 9.55822 0 9.77583 0 9.9956C0 10.4394 0.176313 10.8651 0.490153 11.1789C0.803992 11.4928 1.22965 11.6691 1.67349 11.6691C2.11732 11.6691 2.54298 11.4928 2.85682 11.1789L8.34015 5.67893V18.3289C8.34015 18.771 8.51575 19.1949 8.82831 19.5074C9.14087 19.82 9.56479 19.9956 10.0068 19.9956C10.4488 19.9956 10.8728 19.82 11.1853 19.5074C11.4979 19.1949 11.6735 18.771 11.6735 18.3289V5.67893L17.1568 11.1789C17.3118 11.3351 17.4961 11.4591 17.6992 11.5437C17.9023 11.6284 18.1201 11.6719 18.3402 11.6719C18.5602 11.6719 18.778 11.6284 18.9811 11.5437C19.1842 11.4591 19.3685 11.3351 19.5235 11.1789C19.6797 11.024 19.8037 10.8397 19.8883 10.6366C19.9729 10.4335 20.0165 10.2156 20.0165 9.9956C20.0165 9.77558 19.9729 9.55773 19.8883 9.35463C19.8037 9.15154 19.6797 8.9672 19.5235 8.81226Z" fill="#666666"/>
</svg>
