<svg width="16" height="16" viewBox="0 0 16 16" fill="none" xmlns="http://www.w3.org/2000/svg">
<path d="M0 4.79961C0 3.91961 0.72 3.19961 1.6 3.19961H4L5.6 1.59961H10.4L12 3.19961H14.4C14.8243 3.19961 15.2313 3.36818 15.5314 3.66824C15.8314 3.9683 16 4.37526 16 4.79961V12.7996C16 13.224 15.8314 13.6309 15.5314 13.931C15.2313 14.231 14.8243 14.3996 14.4 14.3996H1.6C1.17565 14.3996 0.768687 14.231 0.468629 13.931C0.168571 13.6309 0 13.224 0 12.7996V4.79961ZM8 12.7996C9.06087 12.7996 10.0783 12.3782 10.8284 11.628C11.5786 10.8779 12 9.86048 12 8.79961C12 7.73874 11.5786 6.72133 10.8284 5.97118C10.0783 5.22104 9.06087 4.79961 8 4.79961C6.93913 4.79961 5.92172 5.22104 5.17157 5.97118C4.42143 6.72133 4 7.73874 4 8.79961C4 9.86048 4.42143 10.8779 5.17157 11.628C5.92172 12.3782 6.93913 12.7996 8 12.7996ZM8 11.1996C7.68483 11.1996 7.37274 11.1375 7.08156 11.0169C6.79038 10.8963 6.5258 10.7195 6.30294 10.4967C6.08008 10.2738 5.9033 10.0092 5.78269 9.71805C5.66208 9.42687 5.6 9.11478 5.6 8.79961C5.6 8.48444 5.66208 8.17235 5.78269 7.88117C5.9033 7.58999 6.08008 7.32541 6.30294 7.10255C6.5258 6.87969 6.79038 6.70291 7.08156 6.5823C7.37274 6.46169 7.68483 6.39961 8 6.39961C8.63652 6.39961 9.24697 6.65247 9.69706 7.10255C10.1471 7.55264 10.4 8.16309 10.4 8.79961C10.4 9.43613 10.1471 10.0466 9.69706 10.4967C9.24697 10.9468 8.63652 11.1996 8 11.1996Z" fill="black"/>
</svg>
