<svg width="32" height="23" viewBox="0 0 32 23" fill="none" xmlns="http://www.w3.org/2000/svg">
<path d="M27.668 4.94141H23.668" stroke="#484B51" stroke-linecap="round" stroke-linejoin="round"/>
<path d="M18.3346 4.94141H3.66797" stroke="#484B51" stroke-linecap="round" stroke-linejoin="round"/>
<path d="M9.0013 11.5H3.66797" stroke="#484B51" stroke-linecap="round" stroke-linejoin="round"/>
<path d="M28.8016 11.5L17.6016 11.5" stroke="#484B51" stroke-linecap="round" stroke-linejoin="round"/>
<path d="M27.668 18.0586H23.668" stroke="#484B51" stroke-linecap="round" stroke-linejoin="round"/>
<path d="M14.388 18.0586H3.66797" stroke="#484B51" stroke-linecap="round" stroke-linejoin="round"/>
<path d="M14.38 11.4446C14.38 11.9051 14.1151 12.3723 13.585 12.7448C13.0563 13.1163 12.2995 13.3619 11.44 13.3619C10.5805 13.3619 9.82369 13.1163 9.29503 12.7448C8.7649 12.3723 8.5 11.9051 8.5 11.4446C8.5 10.9842 8.7649 10.517 9.29503 10.1444C9.82369 9.77295 10.5805 9.52734 11.44 9.52734C12.2995 9.52734 13.0563 9.77295 13.585 10.1444C14.1151 10.517 14.38 10.9842 14.38 11.4446Z" fill="white" stroke="#484B51"/>
<path d="M23.9816 18.1888C23.9816 18.6492 23.7167 19.1165 23.1865 19.489C22.6579 19.8605 21.9011 20.1061 21.0416 20.1061C20.1821 20.1061 19.4253 19.8605 18.8966 19.489C18.3665 19.1165 18.1016 18.6492 18.1016 18.1888C18.1016 17.7283 18.3665 17.2611 18.8966 16.8886C19.4253 16.5171 20.1821 16.2715 21.0416 16.2715C21.9011 16.2715 22.6579 16.5171 23.1865 16.8886C23.7167 17.2611 23.9816 17.7283 23.9816 18.1888Z" fill="white" stroke="#484B51"/>
<path d="M20.7784 4.9212C20.7784 5.38166 20.5135 5.84888 19.9834 6.2214C19.4547 6.59289 18.6979 6.8385 17.8384 6.8385C16.9789 6.8385 16.2221 6.59289 15.6935 6.2214C15.1633 5.84888 14.8984 5.38166 14.8984 4.9212C14.8984 4.46075 15.1633 3.99353 15.6935 3.62101C16.2221 3.24952 16.9789 3.00391 17.8384 3.00391C18.6979 3.00391 19.4547 3.24952 19.9834 3.62101C20.5135 3.99353 20.7784 4.46075 20.7784 4.9212Z" fill="white" stroke="#484B51"/>
</svg>
