<svg width="113" height="48" viewBox="0 0 113 48" fill="none" xmlns="http://www.w3.org/2000/svg">
<path d="M112.41 22.0006L106.107 27.3617C104.125 25.0353 101.493 23.3458 98.5497 22.5205V47.9545H90.271V22.527C87.3273 23.3523 84.6955 25.0353 82.7136 27.3682L76.4103 22.0071C77.2291 21.0389 78.1324 20.1422 79.0941 19.3234C89.0364 10.8627 103.956 12.0649 112.41 22.0071V22.0006Z" fill="#FF9A24"/>
<path d="M73.0637 22.8064L65.6232 26.5624C65.4413 26.218 65.2398 25.8931 65.0124 25.5812C64.6225 25.0353 64.1741 24.5415 63.6803 24.1061C63.1864 23.6707 62.647 23.2938 62.0687 22.9884C61.4969 22.683 60.8925 22.449 60.2752 22.2866C59.6579 22.1241 59.0145 22.0332 58.3777 22.0202C57.7409 22.0072 57.0976 22.0656 56.4737 22.2021C55.8499 22.3386 55.2326 22.5465 54.6477 22.8194C54.0629 23.0989 53.5106 23.4433 52.9972 23.8527C52.4838 24.262 52.016 24.7364 51.6001 25.2628C51.1842 25.7891 50.8333 26.3675 50.5474 26.9783C50.2615 27.5891 50.0405 28.2389 49.8976 28.9083C49.7546 29.5776 49.6896 30.2664 49.6961 30.9487C49.7026 31.6375 49.7936 32.3198 49.956 32.9826C50.1185 33.6455 50.3524 34.2888 50.6579 34.8931C50.9633 35.4974 51.3337 36.0628 51.7625 36.5761C52.1914 37.0895 52.6723 37.5444 53.1922 37.9408C53.7185 38.3372 54.2774 38.6686 54.8687 38.9285C55.46 39.1884 56.0774 39.3769 56.7077 39.4938C57.195 39.5848 57.6889 39.6303 58.1828 39.6303C58.5532 39.6303 58.9171 39.6043 59.2875 39.5588C59.9178 39.4743 60.5481 39.3119 61.146 39.078C61.7503 38.844 62.3221 38.5451 62.8615 38.1747C63.4008 37.8043 63.9012 37.3689 64.3496 36.8816C64.7979 36.3942 65.1943 35.8483 65.5257 35.257C65.5452 35.218 65.5712 35.179 65.5907 35.14L73.0507 38.857C71.4716 41.8917 69.0348 44.374 66.0521 45.9791C57.8384 50.4043 47.6557 47.2072 43.3084 38.844C38.9611 30.4743 42.0997 20.1032 50.3134 15.6779C58.5272 11.2526 68.7099 14.4498 73.0572 22.8129L73.0637 22.8064Z" fill="#FF9A24"/>
<path d="M38.8245 36.6606V47.961H30.5458V36.6606C30.5458 32.8462 28.9083 29.2072 26.0556 26.6794C23.9956 24.8534 21.4548 23.6577 18.7321 23.2288C17.5234 23.0404 16.2952 23.0469 15.0931 23.2418C14.5212 23.3328 13.9689 23.5083 13.449 23.7487C9.2447 25.7047 7.4187 30.6953 9.37466 34.8996C10.6288 37.6029 13.2216 39.4354 16.1848 39.7213H27.9205V48H15.8469C9.78405 47.5841 4.42303 43.9061 1.86273 38.3891C-2.0167 30.039 1.6093 20.1227 9.9595 16.2433C11.1617 15.6844 12.4353 15.2945 13.7415 15.0736C13.8649 15.0541 13.9819 15.0346 14.1054 15.0151C12.9292 9.28368 8.05552 5.04685 2.20714 4.68945C2.18114 4.68945 2.15515 4.68945 2.12916 4.68945C0.842514 4.56599 -0.112723 3.4223 0.0107431 2.12916C0.127711 0.842514 1.2649 -0.112723 2.55804 0.0107431C10.3234 0.74504 16.4057 7.02881 16.8801 14.8137C17.9328 14.8137 18.979 14.8916 20.0187 15.0541C24.301 15.7234 28.3039 17.6144 31.5465 20.4866C36.1733 24.587 38.8245 30.4808 38.8245 36.6671V36.6606Z" fill="#FF9A24"/>
<path d="M19.6744 28.6094C19.8239 29.7726 18.6022 30.8903 16.9452 31.1047C15.2881 31.3191 13.826 30.5524 13.6701 29.3892C13.5206 28.226 14.7423 27.1083 16.3993 26.8939C18.0564 26.6794 19.525 27.4462 19.6744 28.6094Z" fill="#FF9A24"/>
</svg>
