<svg width="31" height="30" viewBox="0 0 31 30" fill="none" xmlns="http://www.w3.org/2000/svg">
<g clip-path="url(#clip0_1665_16332)">
<path d="M24.7188 6.875C25.216 6.875 25.6929 6.67746 26.0446 6.32583C26.3962 5.97419 26.5938 5.49728 26.5938 5C26.5938 4.50272 26.3962 4.02581 26.0446 3.67417C25.6929 3.32254 25.216 3.125 24.7188 3.125H7.21875C6.72147 3.125 6.24456 3.32254 5.89292 3.67417C5.54129 4.02581 5.34375 4.50272 5.34375 5C5.34375 5.49728 5.54129 5.97419 5.89292 6.32583C6.24456 6.67746 6.72147 6.875 7.21875 6.875H24.7188ZM9.34 16.32C9.69161 16.6715 10.1684 16.869 10.6656 16.869C11.1628 16.869 11.6396 16.6715 11.9913 16.32L14.0938 14.2188V25C14.0938 25.4973 14.2913 25.9742 14.6429 26.3258C14.9946 26.6775 15.4715 26.875 15.9688 26.875C16.466 26.875 16.9429 26.6775 17.2946 26.3258C17.6462 25.9742 17.8438 25.4973 17.8438 25V14.2175L19.9462 16.32C20.1192 16.4991 20.3261 16.6419 20.5549 16.7402C20.7836 16.8385 21.0297 16.8902 21.2786 16.8923C21.5276 16.8945 21.7745 16.8471 22.0049 16.7528C22.2353 16.6585 22.4447 16.5193 22.6207 16.3432C22.7968 16.1672 22.936 15.9578 23.0303 15.7274C23.1246 15.497 23.172 15.2501 23.1698 15.0011C23.1677 14.7522 23.116 14.5061 23.0177 14.2774C22.9194 14.0486 22.7766 13.8417 22.5975 13.6688L17.295 8.365C16.9434 8.01349 16.4666 7.81603 15.9694 7.81603C15.4722 7.81603 14.9954 8.01349 14.6437 8.365L9.34 13.6688C8.98849 14.0204 8.79103 14.4972 8.79103 14.9944C8.79103 15.4916 8.98849 15.9684 9.34 16.32Z" fill="#666666"/>
</g>
<defs>
<clipPath id="clip0_1665_16332">
<rect width="30" height="30" fill="white" transform="translate(0.96875)"/>
</clipPath>
</defs>
</svg>
