<?xml version="1.0" encoding="UTF-8"?>
<svg version="1.1" xmlns="http://www.w3.org/2000/svg" width="512" height="512">
<path d="M0 0 C21.94382527 1.62546854 45.48243006 27.0607095 59.1875 42.75 C85.92731143 74.42213823 100.32683628 113.30131595 102.33422852 154.48828125 C102.74737357 165.5310755 102.74737357 165.5310755 107.75 175.0625 C111.01806153 176.4241923 113.49381032 176.3690726 117 176 C121.3942142 174.1605615 124.06048983 171.3017341 126 167 C127.18440309 163.03680504 128.13618999 159.04420139 129 155 C140.76839056 164.85793755 151.64897351 175.81778036 161 188 C162.00167131 189.26245946 163.00435222 190.52411827 164.0078125 191.78515625 C197.15740726 233.82031175 226.74626326 291.39326508 220.57421875 346.4765625 C214.83910124 386.97634561 187.9855441 421.82436927 156 446 C134.58538492 462 134.58538492 462 130 462 C130 462.66 130 463.32 130 464 C103.54285234 477.50274116 76.35930398 482.04844602 46.80078125 482.23828125 C45.56748581 482.246353 44.33419037 482.25442474 43.06352234 482.26274109 C40.46252814 482.27649287 37.86151657 482.2872543 35.26049805 482.29516602 C32.65171863 482.30662006 30.0429614 482.32696563 27.43432617 482.35668945 C-25.42002071 482.95658344 -76.12243606 467.08727144 -114.48046875 429.66015625 C-137.61697957 406.2057052 -151.01426702 373.12169331 -151.203125 340.20703125 C-151.21371445 338.97742424 -151.21371445 338.97742424 -151.22451782 337.72297668 C-151.4481803 304.1130208 -151.4481803 304.1130208 -148 288 C-147.79600586 286.99404785 -147.59201172 285.9880957 -147.38183594 284.95166016 C-144.35989985 270.19607848 -140.36774846 256.07048856 -135 242 C-132.3325102 243.3337449 -132.32188772 244.40076726 -131.38354492 247.19335938 C-131.07950241 248.08518921 -130.7754599 248.97701904 -130.46220398 249.89587402 C-130.13823135 250.8686731 -129.81425873 251.84147217 -129.48046875 252.84375 C-128.78061875 254.89584008 -128.08074829 256.94792319 -127.38085938 259 C-126.28591481 262.2400772 -125.1938557 265.48110893 -124.10327148 268.72265625 C-123.04866563 271.848835 -121.98365237 274.97133341 -120.91796875 278.09375 C-120.60006882 279.05035522 -120.28216888 280.00696045 -119.95463562 280.99255371 C-116.79414426 291.31829888 -116.79414426 291.31829888 -110.08561707 299.25427246 C-105.40920315 300.92635824 -101.04910639 299.48420295 -96.75 297.5 C-91.9268586 293.115326 -90.28138465 288.89921037 -89.65234375 282.41796875 C-89.28379301 266.0895684 -93.60451359 251.59829051 -98.51147461 236.16699219 C-101.04561937 228.17902844 -103.39991942 220.17563747 -105.5 212.0625 C-105.74274658 211.12849365 -105.98549316 210.1944873 -106.2355957 209.23217773 C-112.71475561 183.78018844 -109.04889891 158.70687469 -96 136 C-90.60397125 127.25242802 -84.13096805 119.38723721 -77 112 C-76.4740625 111.45359863 -75.948125 110.90719727 -75.40625 110.34423828 C-73.67547775 108.55397074 -71.93405698 106.77486501 -70.1875 105 C-69.36028442 104.15296509 -69.36028442 104.15296509 -68.51635742 103.28881836 C-65.87206464 100.63967885 -63.52559589 98.36584829 -60 97 C-59.84144531 98.16273437 -59.68289062 99.32546875 -59.51953125 100.5234375 C-58.29917439 109.05426179 -56.83631782 117.43106882 -54.5625 125.75 C-54.36954346 126.47493652 -54.17658691 127.19987305 -53.9777832 127.94677734 C-52.60092859 132.77502986 -50.7257273 136.77322606 -48 141 C-45.14832966 142.42583517 -43.16285609 142.31084581 -40 142 C-37.40954449 140.3515691 -37.40954449 140.3515691 -35.125 138 C-34.26261719 137.16984375 -33.40023437 136.3396875 -32.51171875 135.484375 C-31.68285156 134.66453125 -30.85398437 133.8446875 -30 133 C-29.30519531 132.36578125 -28.61039062 131.7315625 -27.89453125 131.078125 C-8.07372735 112.56288303 4.25354008 81.51135182 5.91015625 54.72265625 C5.93980469 53.82417969 5.96945313 52.92570312 6 52 C6.03996094 50.92621094 6.07992187 49.85242188 6.12109375 48.74609375 C6.36041804 36.14637399 4.8573967 24.33535085 0.67700195 12.45361328 C-0.6867161 8.49949318 -1.33968271 5.18312969 -1 1 C-0.67 0.67 -0.34 0.34 0 0 Z " fill="#F95352" transform="translate(221,15)"/>
<path d="M0 0 C3.16585676 4.21296183 4.07528067 8.72526221 5.25 13.75 C11.44353352 38.43673486 24.3539036 60.91696988 37.52392578 82.49707031 C58.72239389 117.30976605 77.42288782 156.19818131 67.50390625 197.83642578 C67.15461257 199.33615474 66.83633749 200.84331654 66.54296875 202.35498047 C63.97482202 215.30272026 63.97482202 215.30272026 59.3828125 219.46630859 C54.64606933 222.62038995 49.38795045 224.29905548 44 226 C42.39260904 226.56203166 40.78584025 227.1258458 39.1796875 227.69140625 C19.45155014 234.34410051 -1.48537175 236.10524964 -22.19921875 236.23828125 C-23.43251419 236.246353 -24.66580963 236.25442474 -25.93647766 236.26274109 C-28.53747186 236.27649287 -31.13848343 236.2872543 -33.73950195 236.29516602 C-36.34828137 236.30662006 -38.9570386 236.32696563 -41.56567383 236.35668945 C-67.89448177 236.65552 -92.01358334 233.32880555 -117 225 C-118.5752094 222.83671242 -119.95805698 220.73391483 -121.3125 218.4375 C-121.90635498 217.43517334 -121.90635498 217.43517334 -122.51220703 216.41259766 C-137.67242559 189.98839211 -139.58048523 158.37275924 -131.78125 129.32421875 C-127.51872191 114.44359252 -121.06411367 95.25671913 -110 84 C-107.07421875 82.8828125 -107.07421875 82.8828125 -104 83 C-99.50017303 86.31878734 -97.61662557 90.49411872 -95.625 95.5625 C-90.89656902 106.90606941 -84.96121997 116.62040176 -77 126 C-76.32710937 126.86496094 -75.65421875 127.72992188 -74.9609375 128.62109375 C-71.64227075 133.04567952 -71.64227075 133.04567952 -66.94140625 135.55859375 C-64.80931423 135.62315351 -64.80931423 135.62315351 -62 135 C-60.28472881 127.97765041 -59.36693064 121.05902075 -58.625 113.875 C-53.99607154 71.9614528 -42.33965096 29.62384507 -9 1 C-5.61121393 -1.03573174 -3.78695065 -1.45651948 0 0 Z " fill="#FED450" transform="translate(290,261)"/>
</svg>
