<svg width="24" height="24" viewBox="0 0 24 24" fill="none" xmlns="http://www.w3.org/2000/svg">
<path d="M3.22222 22C2.61111 22 2.08778 21.7985 1.65222 21.3954C1.21667 20.9923 0.999261 20.5083 1 19.9434V15.2648L4.05556 12.0514L5.63889 13.5167L3.41667 15.8303H20.5833L18.4167 13.5681L20 12.1028L23 15.2648V19.9434C23 20.509 22.7822 20.9933 22.3467 21.3964C21.9111 21.7995 21.3881 22.0007 20.7778 22H3.22222ZM10.4444 14.1851L6.58334 10.5604C6.15741 10.1662 5.94445 9.67781 5.94445 9.09511C5.94445 8.51242 6.15741 8.02399 6.58334 7.62982L12.0278 2.59126C12.4537 2.19709 12.9815 2 13.6111 2C14.2407 2 14.7685 2.19709 15.1944 2.59126L19.1111 6.16452C19.537 6.5587 19.7548 7.04267 19.7644 7.61645C19.7741 8.19023 19.5656 8.67455 19.1389 9.06941L13.5833 14.2108C13.1574 14.605 12.6341 14.7979 12.0133 14.7897C11.3926 14.7815 10.8696 14.5799 10.4444 14.1851ZM17.5556 7.60411L13.6111 4.00514L8.11111 9.09511L12.0556 12.6941L17.5556 7.60411Z" fill="black"/>
</svg>
