<svg width="118" height="137" viewBox="0 0 118 137" fill="none" xmlns="http://www.w3.org/2000/svg">
<rect x="11" y="10" width="96" height="117" rx="4" fill="white"/>
<path d="M75.3761 106.791C80.8947 107.505 84.1607 106.361 85.5574 103.829C86.0201 102.991 85.0507 101.807 83.9107 103.164C82.3927 104.969 83.4754 109.38 87.3801 104.846C86.6094 107.161 87.2874 107.236 88.9921 105.722M83.9801 93L87.1167 96.084L79.0734 104.18L75.0081 105.073L76.1294 101.026L83.9801 93Z" stroke="#8C949E" stroke-width="0.666667" stroke-linecap="round" stroke-linejoin="round"/>
<path d="M91.6666 87.667H72.3333C70.8605 87.667 69.6666 88.8609 69.6666 90.3337V109.667C69.6666 111.14 70.8605 112.334 72.3333 112.334H91.6666C93.1394 112.334 94.3333 111.14 94.3333 109.667V90.3337C94.3333 88.8609 93.1394 87.667 91.6666 87.667Z" stroke="#8C949E" stroke-width="0.666667" stroke-linecap="round" stroke-linejoin="round"/>
<path d="M37.8027 28.1572C37.8027 29.3711 38.5869 30.542 40.123 31.0469L39.4678 31.9492C38.4097 31.5947 37.647 30.875 37.2227 29.9619C36.793 30.9878 35.9819 31.7988 34.8379 32.1963L34.2148 31.251C35.7832 30.7246 36.5996 29.4463 36.5996 28.1572V27.9746H34.5801V27.0186H39.8223V27.9746H37.8027V28.1572ZM41.9814 26.2451V29.124H43.335V30.1123H41.9814V33.3564H40.7891V26.2451H41.9814ZM42.3682 34.7959V35.7627H35.7617V32.6689H36.9541V34.7959H42.3682ZM51.7568 27.1367V28.0713C51.7461 29.2744 51.7461 30.6279 51.3701 32.6582L50.167 32.5293C50.543 30.6387 50.543 29.2583 50.5537 28.0928H44.7529V27.1367H51.7568ZM52.6807 33.7217V34.6992H43.8291V33.7217H47.0947V30.3486H48.2764V33.7217H52.6807ZM62.1875 30.7676V31.7344H53.3359V30.7676H62.1875ZM57.751 32.3789C59.8457 32.3789 61.1025 33.0342 61.1133 34.1621C61.1025 35.3008 59.8457 35.9453 57.751 35.9453C55.6348 35.9453 54.3672 35.3008 54.3672 34.1621C54.3672 33.0342 55.6348 32.3789 57.751 32.3789ZM57.751 33.3135C56.333 33.3135 55.5703 33.6035 55.5811 34.1621C55.5703 34.7207 56.333 35.0107 57.751 35.0107C59.1367 35.0107 59.9102 34.7207 59.9209 34.1621C59.9102 33.6035 59.1367 33.3135 57.751 33.3135ZM61.3926 26.707V27.6846H58.5889C58.7661 28.4902 59.9316 29.2153 61.7686 29.3926L61.3496 30.3379C59.5879 30.1499 58.2773 29.457 57.751 28.4688C57.2246 29.4517 55.9355 30.1499 54.1738 30.3379L53.7656 29.3926C55.5649 29.2153 56.7358 28.4902 56.9238 27.6846H54.1416V26.707H61.3926ZM70.9746 26.2451V31.96H69.7822V30.6172H67.8271V31.3691H63.2617V26.9756H67.8271V27.7275H69.7822V26.2451H70.9746ZM64.4541 27.9209V30.4131H66.6455V27.9209H64.4541ZM67.6875 32.2178C69.75 32.2178 71.0068 32.9053 71.0068 34.0869C71.0068 35.2686 69.75 35.9453 67.6875 35.9453C65.6357 35.9453 64.3789 35.2686 64.3896 34.0869C64.3789 32.9053 65.6357 32.2178 67.6875 32.2178ZM67.6875 33.1309C66.334 33.1309 65.5713 33.4639 65.5713 34.0869C65.5713 34.6885 66.334 35.0215 67.6875 35.0215C69.041 35.0215 69.8145 34.6885 69.8145 34.0869C69.8145 33.4639 69.041 33.1309 67.6875 33.1309ZM67.8271 29.6504H69.7822V28.6729H67.8271V29.6504ZM75.9375 28.5762C75.9375 30.3809 76.7969 32.1533 78.3438 32.8301L77.624 33.7861C76.5229 33.249 75.7495 32.2178 75.3359 30.9502C74.9116 32.2876 74.1221 33.3994 73.0049 33.9688L72.2529 33.002C73.832 32.2607 74.7129 30.3916 74.7236 28.5762V27.0293H75.9375V28.5762ZM80.4922 26.2451V35.9668H79.3105V30.3486H77.2695V29.3818H79.3105V26.2451H80.4922Z" fill="black"/>
<rect x="22" y="48" width="73" height="6" fill="#D9D9D9"/>
<rect x="22" y="58" width="73" height="6" fill="#D9D9D9"/>
<rect x="22" y="68" width="73" height="6" fill="#D9D9D9"/>
<rect x="22" y="78" width="40" height="6" fill="#D9D9D9"/>
<rect x="22" y="88" width="40" height="6" fill="#D9D9D9"/>
<path d="M2 18V6C2 3.79086 3.79086 2 6 2H18" stroke="#355CE9" stroke-width="3" stroke-linecap="round"/>
<path d="M100 2L112 2C114.209 2 116 3.79086 116 6L116 18" stroke="#355CE9" stroke-width="3" stroke-linecap="round"/>
<path d="M2 119V131C2 133.209 3.79086 135 6 135H18" stroke="#355CE9" stroke-width="3" stroke-linecap="round"/>
<path d="M100 135L112 135C114.209 135 116 133.209 116 131L116 119" stroke="#355CE9" stroke-width="3" stroke-linecap="round"/>
</svg>
